<?xml version="1.0" encoding="UTF-8"?>
<!-- Generator: Adobe Illustrator 23.0.0, SVG Export Plug-In . SVG Version: 6.00 Build 0)  -->
<svg version="1.1" id="Layer_1" xmlns="http://www.w3.org/2000/svg" xmlns:xlink="http://www.w3.org/1999/xlink" x="0px" y="0px" viewBox="0 0 14.87 15.36" style="enable-background:new 0 0 14.87 15.36;" xml:space="preserve">
<style type="text/css">
	.st0{fill:#EA1D76;}
</style>
<path class="st0" d="M7.46,2.96h0.03H7.46z M7.49,14.65c-1.07,0-2.09-0.26-2.99-0.7l0.67-1.17h4.68l0.67,1.17  C9.58,14.38,8.57,14.65,7.49,14.65 M5.31,10.83c-0.38,0-0.7-0.35-0.7-0.79c0-0.41,0.32-0.76,0.7-0.76c0.38,0,0.67,0.35,0.67,0.76  C5.98,10.48,5.69,10.83,5.31,10.83 M9.73,10.89c-0.38,0-0.7-0.35-0.7-0.79s0.32-0.79,0.7-0.79c0.38,0,0.7,0.35,0.7,0.79  S10.11,10.89,9.73,10.89 M11.47,13.36l-0.99-1.72c0.7-0.26,1.02-1.02,1.02-1.72c-0.03-3-0.61-6.76-0.64-6.79  c-0.75-0.15-2.82-0.18-3.37-0.18c-0.55,0-2.64,0.03-3.37,0.18C4.1,3.17,3.48,6.93,3.46,9.93c0,0.7,0.35,1.49,1.05,1.72l-0.99,1.75  c-1.83-1.25-3.02-3.38-3.02-5.77c0-3.87,3.14-7.02,7-7.02c3.86,0,7,3.15,7,7.02C14.49,10.01,13.3,12.11,11.47,13.36 M10.14,8.27  h-5.2c-0.15,0-0.29-0.15-0.29-0.29l0.29-3.15c0-0.15,0.12-0.29,0.26-0.29h4.65c0.17,0,0.29,0.15,0.29,0.29l0.26,3.15  C10.4,8.12,10.28,8.27,10.14,8.27 M8.95,4.1H6.07c-0.09,0-0.15-0.06-0.15-0.12V3.55c0-0.06,0.06-0.12,0.15-0.12h2.88  c0.06,0,0.12,0.06,0.12,0.12v0.44C9.06,4.04,9,4.1,8.95,4.1"/>
</svg>
